<svg viewBox="0 0 210 297" xmlns="http://www.w3.org/2000/svg">
  <rect width="210" height="297" fill="#ffffff" />
  <rect x="70" y="25" width="70" height="6" fill="#1e293b" />
  <rect x="50" y="38" width="110" height="2" fill="#64748b" />
  <rect x="20" y="55" width="40" height="4" fill="#1e293b" />
  <rect x="20" y="62" width="170" height="1" fill="#cbd5e1" />
  <rect x="20" y="70" width="170" height="2" fill="#94a3b8" />
  <rect x="20" y="76" width="150" height="2" fill="#94a3b8" />
  <rect x="20" y="95" width="40" height="4" fill="#1e293b" />
  <rect x="20" y="102" width="170" height="1" fill="#cbd5e1" />
  <rect x="20" y="110" width="60" height="3" fill="#334155" />
  <rect x="160" y="110" width="30" height="3" fill="#94a3b8" />
  <rect x="20" y="118" width="165" height="2" fill="#94a3b8" />
  <rect x="20" y="124" width="145" height="2" fill="#94a3b8" />
  <rect x="20" y="130" width="155" height="2" fill="#94a3b8" />
  <rect x="20" y="145" width="60" height="3" fill="#334155" />
  <rect x="160" y="145" width="30" height="3" fill="#94a3b8" />
  <rect x="20" y="153" width="160" height="2" fill="#94a3b8" />
  <rect x="20" y="159" width="145" height="2" fill="#94a3b8" />
</svg>
