<svg viewBox="0 0 210 297" xmlns="http://www.w3.org/2000/svg">
  <rect width="210" height="297" fill="#ffffff" />
  <rect x="0" y="0" width="65" height="297" fill="#1e293b" />
  <circle cx="32.5" cy="35" r="15" fill="#475569" />
  <rect x="10" y="65" width="45" height="3" fill="#94a3b8" />
  <rect x="10" y="73" width="35" height="2" fill="#64748b" />
  <rect x="10" y="79" width="40" height="2" fill="#64748b" />
  <rect x="10" y="95" width="45" height="3" fill="#94a3b8" />
  <rect x="10" y="103" width="30" height="2" fill="#64748b" />
  <rect x="10" y="109" width="35" height="2" fill="#64748b" />
  <rect x="80" y="30" width="80" height="6" fill="#0f172a" />
  <rect x="80" y="42" width="50" height="2" fill="#64748b" />
  <rect x="80" y="65" width="40" height="4" fill="#0f172a" />
  <rect x="80" y="75" width="110" height="2" fill="#94a3b8" />
  <rect x="80" y="81" width="95" height="2" fill="#94a3b8" />
  <rect x="80" y="100" width="40" height="4" fill="#0f172a" />
  <rect x="80" y="110" width="60" height="3" fill="#334155" />
  <rect x="80" y="118" width="110" height="2" fill="#94a3b8" />
  <rect x="80" y="124" width="90" height="2" fill="#94a3b8" />
</svg>
